<?xml version="1.0" encoding="iso-8859-1"?>
<!-- Generator: Adobe Illustrator 19.0.0, SVG Export Plug-In . SVG Version: 6.00 Build 0)  -->
<svg version="1.1" id="Layer_1" xmlns="http://www.w3.org/2000/svg" xmlns:xlink="http://www.w3.org/1999/xlink" x="0px" y="0px"
	 viewBox="0 0 512 512" style="enable-background:new 0 0 512 512;" xml:space="preserve">
<g>
	<g>
		<path d="M481.583,78.221v44.503c0,30.783-21.41,56.643-50.117,63.517V0h-30.417v124.696
			c-28.707-6.874-50.116-32.736-50.116-63.519h-30.417c0,47.617,34.943,87.222,80.534,94.53v32.339H346.53
			c-33.712,0.004-61.422,26.114-64.018,59.167h-53.024c-2.596-33.053-30.306-59.164-64.02-59.167h-54.516v-32.339
			c45.59-7.308,80.534-46.912,80.534-94.53h-30.417c0,30.783-21.411,56.646-50.117,63.519V0H80.535v186.24
			c-28.708-6.873-50.117-32.734-50.117-63.516V78.221H0v44.503c0,52.791,42.95,95.74,95.743,95.74h69.724
			c16.927,0.002,30.988,12.5,33.442,28.75h-17.776h-30.417H64.474v15.209c0,32.163,26.166,58.329,58.329,58.329
			c10.105,0,19.616-2.586,27.912-7.127v35.244c0,44.528,10.193,85.326,28.702,114.883c19.483,31.113,46.681,48.247,76.583,48.247
			s57.1-17.134,76.583-48.247c18.508-29.555,28.702-70.355,28.702-114.883v-35.244c8.296,4.54,17.807,7.127,27.912,7.127
			c32.163,0,58.329-26.167,58.329-58.329v-15.209h-86.242h-30.417h-17.776c2.454-16.25,16.514-28.749,33.441-28.75h69.725
			c52.793,0,95.743-42.948,95.743-95.74V78.221H481.583z M122.803,290.335c-9.785,0-18.41-5.06-23.395-12.703h46.791
			C141.214,285.275,132.589,290.335,122.803,290.335z M412.592,277.632c-4.985,7.643-13.61,12.703-23.396,12.703
			c-9.786,0-18.41-5.06-23.396-12.703H412.592z M330.868,277.631v71.239h-0.001c0,38.892-8.546,73.958-24.064,98.739
			c-9.997,15.965-22.292,26.695-35.594,31.346v-35.708h-30.417v35.708c-13.302-4.651-25.597-15.381-35.594-31.346
			c-15.518-24.78-24.064-59.846-24.064-98.739v-71.239H330.868z"/>
	</g>
</g>
<g>
	<g>
		<path d="M212.098,334.246c-9.595,0-17.4,7.805-17.4,17.4s7.805,17.401,17.4,17.401s17.401-7.806,17.401-17.401
			S221.692,334.246,212.098,334.246z"/>
	</g>
</g>
<g>
	<g>
		<path d="M299.902,334.246c-9.595,0-17.401,7.805-17.401,17.4s7.806,17.401,17.401,17.401s17.401-7.806,17.401-17.401
			S309.497,334.246,299.902,334.246z"/>
	</g>
</g>
<g>
</g>
<g>
</g>
<g>
</g>
<g>
</g>
<g>
</g>
<g>
</g>
<g>
</g>
<g>
</g>
<g>
</g>
<g>
</g>
<g>
</g>
<g>
</g>
<g>
</g>
<g>
</g>
<g>
</g>
</svg>
