<?xml version="1.0" encoding="iso-8859-1"?>
<!-- Generator: Adobe Illustrator 19.0.0, SVG Export Plug-In . SVG Version: 6.00 Build 0)  -->
<svg version="1.1" id="Layer_1" xmlns="http://www.w3.org/2000/svg" xmlns:xlink="http://www.w3.org/1999/xlink" x="0px" y="0px"
	 viewBox="0 0 511.999 511.999" style="enable-background:new 0 0 511.999 511.999;" xml:space="preserve">
<g>
	<g>
		<path d="M255.999,102.921c-84.408,0-153.079,68.671-153.079,153.079s68.671,153.079,153.079,153.079S409.078,340.407,409.078,256
			S340.407,102.921,255.999,102.921z M377.72,240.791h-66.721c-1.262-4.559-3.076-8.888-5.367-12.915l47.15-47.15
			C366.048,197.743,374.931,218.335,377.72,240.791z M271.209,134.281c22.456,2.789,43.047,11.673,60.065,24.938l-47.15,47.149
			c-4.027-2.291-8.357-4.104-12.915-5.367V134.281z M240.791,134.28v66.721c-4.559,1.262-8.888,3.076-12.915,5.367l-47.15-47.15
			C197.743,145.952,218.335,137.069,240.791,134.28z M159.219,180.726l47.149,47.15c-2.291,4.027-4.104,8.357-5.367,12.915h-66.72
			C137.07,218.335,145.954,197.743,159.219,180.726z M134.28,271.208h66.721c1.262,4.559,3.076,8.888,5.367,12.915l-47.15,47.15
			C145.952,314.256,137.069,293.664,134.28,271.208z M240.791,377.718c-22.456-2.789-43.047-11.673-60.065-24.938l47.15-47.149
			c4.027,2.291,8.357,4.104,12.915,5.367V377.718z M229.344,256c0-14.698,11.958-26.656,26.656-26.656
			c14.698,0,26.656,11.958,26.656,26.656c0,14.698-11.958,26.656-26.656,26.656C241.302,282.655,229.344,270.697,229.344,256z
			 M271.208,377.72v-66.721c4.559-1.262,8.888-3.076,12.915-5.367l47.15,47.15C314.256,366.048,293.664,374.931,271.208,377.72z
			 M352.78,331.274l-47.149-47.15c2.291-4.027,4.104-8.357,5.367-12.915h66.72C374.929,293.665,366.045,314.257,352.78,331.274z"/>
	</g>
</g>
<g>
	<g>
		<path d="M481.583,203.614v37.177h-28.868c-3.292-42.986-20.427-82.155-46.935-113.063l20.486-20.486l26.288,26.288l21.508-21.508
			l-74.083-74.083L378.47,59.446l26.288,26.288l-20.487,20.486c-30.908-26.507-70.076-43.642-113.063-46.935V30.417h37.177V0
			H203.614v30.417h37.177v28.868c-42.986,3.292-82.155,20.427-113.063,46.935l-20.486-20.486l26.288-26.288l-21.508-21.508
			l-74.083,74.083l21.508,21.508l26.288-26.288l20.486,20.486c-26.507,30.908-43.642,70.077-46.935,113.063H30.417v-37.177H0
			v104.771h30.417v-37.177h28.868c3.293,42.987,20.428,82.155,46.935,113.063l-20.486,20.486l-26.288-26.288l-21.508,21.508
			l74.083,74.083l21.508-21.508l-26.288-26.288l20.486-20.486c30.908,26.508,70.077,43.643,113.063,46.935v28.868h-37.177v30.417
			h104.771v-30.417h-37.177v-28.868c42.986-3.292,82.155-20.427,113.063-46.935l20.486,20.486l-26.288,26.288l21.508,21.508
			l74.083-74.083l-21.508-21.508l-26.288,26.288l-20.486-20.486c26.508-30.908,43.643-70.077,46.935-113.063h28.868v37.177h30.417
			V203.614H481.583z M255.999,422.878c-92.017,0-166.878-74.861-166.878-166.878S163.982,89.121,255.999,89.121
			S422.878,163.982,422.878,256S348.017,422.878,255.999,422.878z"/>
	</g>
</g>
<g>
</g>
<g>
</g>
<g>
</g>
<g>
</g>
<g>
</g>
<g>
</g>
<g>
</g>
<g>
</g>
<g>
</g>
<g>
</g>
<g>
</g>
<g>
</g>
<g>
</g>
<g>
</g>
<g>
</g>
</svg>
