<?xml version="1.0" encoding="iso-8859-1"?>
<!-- Generator: Adobe Illustrator 19.0.0, SVG Export Plug-In . SVG Version: 6.00 Build 0)  -->
<svg version="1.1" id="Layer_1" xmlns="http://www.w3.org/2000/svg" xmlns:xlink="http://www.w3.org/1999/xlink" x="0px" y="0px"
	 viewBox="0 0 512 512" style="enable-background:new 0 0 512 512;" xml:space="preserve">
<g>
	<g>
		<path d="M487.991,109.86c0-41.915-34.101-76.016-76.016-76.016h-28.359v30.417h28.359c25.143,0,45.598,20.456,45.598,45.598
			v194.757H281.34H230.66H54.426V109.86c0-25.143,20.456-45.598,45.598-45.598h28.359V33.845h-28.359
			c-41.915,0-76.016,34.101-76.016,76.016v194.757H0v30.417h24.009v12.672v49.745c0,44.5,36.204,80.704,80.704,80.704h45.244
			c44.5,0,80.704-36.203,80.704-80.704v-9.534h50.679v9.534c0,44.5,36.203,80.704,80.704,80.704h45.243
			c44.5,0,80.704-36.203,80.704-80.704v-49.745v-12.672H512v-30.417h-24.009V109.86z M54.426,347.706v-12.672h49.284l-49.284,49.285
			V347.706z M82.641,442.624c-9.425-4.624-17.202-12.108-22.186-21.318l86.27-86.271h43.505L82.641,442.624z M200.242,397.451
			c0.001,27.729-22.557,50.288-50.287,50.288h-29.414l79.701-79.701V397.451z M281.34,357.502H230.66v-22.466h50.679V357.502z
			 M311.757,335.034h49.284l-49.284,49.284V335.034z M339.972,442.624c-9.425-4.624-17.202-12.108-22.186-21.318l86.271-86.271
			h43.505L339.972,442.624z M457.574,397.451c0,27.729-22.558,50.288-50.287,50.288h-29.414l79.701-79.701V397.451z"/>
	</g>
</g>
<g>
</g>
<g>
</g>
<g>
</g>
<g>
</g>
<g>
</g>
<g>
</g>
<g>
</g>
<g>
</g>
<g>
</g>
<g>
</g>
<g>
</g>
<g>
</g>
<g>
</g>
<g>
</g>
<g>
</g>
</svg>
