<?xml version="1.0" encoding="iso-8859-1"?>
<!-- Generator: Adobe Illustrator 19.0.0, SVG Export Plug-In . SVG Version: 6.00 Build 0)  -->
<svg version="1.1" id="Layer_1" xmlns="http://www.w3.org/2000/svg" xmlns:xlink="http://www.w3.org/1999/xlink" x="0px" y="0px"
	 viewBox="0 0 511.999 511.999" style="enable-background:new 0 0 511.999 511.999;" xml:space="preserve">
<g>
	<g>
		<path d="M419.984,198.264h-48.581v-52.121v-30.417v-6.262c0-34.526-28.088-62.614-62.614-62.614c-4.68,0-9.348,0.531-13.899,1.568
			C278.915,18.942,247.879,0,213.541,0c-29.864,0-57.341,14.188-74.616,37.799c-7.743-2.607-15.899-3.955-24.125-3.955
			c-41.697,0-75.62,33.923-75.62,75.62v6.262v30.417v319.971c0,25.301,20.584,45.884,45.885,45.884h240.454
			c25.301,0,45.884-20.583,45.884-45.884v-36.654h48.581c29.134,0,52.836-23.702,52.836-52.836V251.1
			C472.82,221.966,449.118,198.264,419.984,198.264z M69.596,109.464c0-24.925,20.278-45.203,45.203-45.203
			c7.879,0,15.646,2.069,22.461,5.984l13.779,7.915l7.303-14.112c10.736-20.745,31.886-33.631,55.198-33.631
			c26.562,0,50.184,16.887,58.779,42.019l5.755,16.828l15.731-8.297c4.654-2.455,9.696-3.7,14.982-3.7
			c17.754,0,32.197,14.444,32.197,32.197v6.262H69.596V109.464z M340.986,466.115c0,8.529-6.938,15.467-15.467,15.467H85.065
			c-8.529,0-15.468-6.939-15.468-15.467V146.143h271.389V466.115z M442.402,376.624c0,12.362-10.057,22.418-22.418,22.418h-48.581
			V228.681h48.581c12.362,0,22.418,10.057,22.418,22.418V376.624z"/>
	</g>
</g>
<g>
	<g>
		<rect x="114.632" y="199.567" width="30.417" height="228.595"/>
	</g>
</g>
<g>
	<g>
		<rect x="190.087" y="199.567" width="30.417" height="228.595"/>
	</g>
</g>
<g>
	<g>
		<rect x="265.532" y="199.567" width="30.417" height="228.595"/>
	</g>
</g>
<g>
</g>
<g>
</g>
<g>
</g>
<g>
</g>
<g>
</g>
<g>
</g>
<g>
</g>
<g>
</g>
<g>
</g>
<g>
</g>
<g>
</g>
<g>
</g>
<g>
</g>
<g>
</g>
<g>
</g>
</svg>
