<?xml version="1.0" encoding="iso-8859-1"?>
<!-- Generator: Adobe Illustrator 18.0.0, SVG Export Plug-In . SVG Version: 6.00 Build 0)  -->
<!DOCTYPE svg PUBLIC "-//W3C//DTD SVG 1.1//EN" "http://www.w3.org/Graphics/SVG/1.1/DTD/svg11.dtd">
<svg version="1.1" id="Capa_1" xmlns="http://www.w3.org/2000/svg" xmlns:xlink="http://www.w3.org/1999/xlink" x="0px" y="0px"
	 viewBox="0 0 297 297" style="enable-background:new 0 0 297 297;" xml:space="preserve">
<path d="M297,148.504c0-2.474-0.994-4.882-2.746-6.633c-1.316-1.317-3.015-2.205-4.833-2.561
	c-4.443-29.331-29.81-51.883-60.345-51.883c-27.791,0-51.286,18.688-58.637,44.157c-6.436-4.233-14.001-6.611-21.936-6.611
	c-7.937,0-15.503,2.379-21.939,6.613c-7.351-25.471-30.848-44.159-58.64-44.159c-30.533,0-55.897,22.552-60.341,51.883
	c-1.818,0.354-3.522,1.242-4.84,2.561C1.002,143.622,0,146.03,0,148.494c0,2.475,1.002,4.882,2.745,6.634
	c1.324,1.318,3.025,2.211,4.841,2.568c4.445,29.328,29.81,51.876,60.34,51.876c30.737,0,56.227-22.853,60.421-52.466
	c0.296-0.4,0.573-0.819,0.81-1.275c3.879-7.476,11.293-12.119,19.348-12.119c8.053,0,15.466,4.644,19.346,12.119
	c0.236,0.455,0.512,0.875,0.808,1.273c4.193,29.614,29.683,52.468,60.419,52.468c30.534,0,55.902-22.553,60.345-51.885
	c1.818-0.355,3.517-1.242,4.833-2.56C296.006,153.376,297,150.969,297,148.504z M67.926,190.834
	c-23.321,0-42.294-18.991-42.294-42.334s18.973-42.334,42.294-42.334c23.324,0,42.3,18.991,42.3,42.334
	S91.25,190.834,67.926,190.834z M229.076,190.834c-23.323,0-42.299-18.991-42.299-42.334s18.976-42.334,42.299-42.334
	c23.322,0,42.298,18.991,42.298,42.334S252.398,190.834,229.076,190.834z"/>
<g>
</g>
<g>
</g>
<g>
</g>
<g>
</g>
<g>
</g>
<g>
</g>
<g>
</g>
<g>
</g>
<g>
</g>
<g>
</g>
<g>
</g>
<g>
</g>
<g>
</g>
<g>
</g>
<g>
</g>
</svg>
