<?xml version="1.0" encoding="iso-8859-1"?>
<!-- Generator: Adobe Illustrator 19.0.0, SVG Export Plug-In . SVG Version: 6.00 Build 0)  -->
<svg version="1.1" id="Layer_1" xmlns="http://www.w3.org/2000/svg" xmlns:xlink="http://www.w3.org/1999/xlink" x="0px" y="0px"
	 viewBox="0 0 511.999 511.999" style="enable-background:new 0 0 511.999 511.999;" xml:space="preserve">
<g>
	<g>
		<path d="M297.365,34.299h-8.798h-73.933L0,406.054L41.366,477.7h420.468h8.798l41.366-71.646L297.365,34.299z M232.23,64.776
			h29.942L88.977,364.76l26.018,0.013l74.23,0.126l0.051-0.087l133.435,0.068l15.004,25.937H43.992L232.23,64.776z M206.865,334.342
			L256,249.241l49.163,85.152L206.865,334.342z M58.963,447.223l-14.972-25.929h346.536h0.025l-13.325-23.035L273.596,218.763
			l14.972-25.931l146.873,254.391H58.963z M461.836,431.985L288.568,131.877l-50.165,86.886v0.001l-66.721,115.561l-29.933-0.015
			L288.567,80.014l188.24,326.04L461.836,431.985z"/>
	</g>
</g>
<g>
</g>
<g>
</g>
<g>
</g>
<g>
</g>
<g>
</g>
<g>
</g>
<g>
</g>
<g>
</g>
<g>
</g>
<g>
</g>
<g>
</g>
<g>
</g>
<g>
</g>
<g>
</g>
<g>
</g>
</svg>
