<?xml version="1.0" encoding="iso-8859-1"?>
<!-- Generator: Adobe Illustrator 19.0.0, SVG Export Plug-In . SVG Version: 6.00 Build 0)  -->
<svg version="1.1" id="Layer_1" xmlns="http://www.w3.org/2000/svg" xmlns:xlink="http://www.w3.org/1999/xlink" x="0px" y="0px"
	 viewBox="0 0 512 512" style="enable-background:new 0 0 512 512;" xml:space="preserve">
<g>
	<g>
		<path d="M508.536,150.681c-1.041-3.651-26.572-89.763-119.713-120.27c-26.604-8.715-55.531-9.536-81.458-2.312
			c-21.826,6.08-39.612,17.31-51.365,32.198c-11.754-14.888-29.538-26.119-51.365-32.198c-25.927-7.222-54.856-6.402-81.458,2.312
			C30.036,60.919,4.504,147.031,3.464,150.682L0,162.824l11.295,5.644c1.084,0.542,9.077,4.466,22.02,9.184v126.307
			c0,101.911,82.91,184.821,184.82,184.821h75.729c101.911,0,184.82-82.911,184.82-184.82V177.651
			c12.943-4.717,20.935-8.641,22.02-9.183L512,162.824L508.536,150.681z M256,146.52c12.77,17.333,32.728,31.157,57.169,39.162
			c15.713,5.147,31.44,8.069,46.743,9.376c-0.507,13.07-4.113,25.867-10.517,37.196c-3.063,5.417-8.375,9.06-14.574,9.993
			c-6.017,0.905-11.963-0.93-16.308-5.039c-16.962-16.038-39.162-24.871-62.511-24.871c-23.349,0-45.548,8.832-62.511,24.871
			c-4.345,4.109-10.292,5.943-16.308,5.039c-6.2-0.933-11.512-4.575-14.574-9.994c-6.405-11.328-10.01-24.126-10.517-37.196
			c15.304-1.308,31.035-4.23,46.743-9.376C223.271,177.677,243.23,163.853,256,146.52z M132.65,59.336
			c41.619-13.634,89.195-1.444,103.892,26.614c5.163,9.857,5.599,20.711,1.261,31.389c-6.911,17.011-25.022,31.748-48.445,39.42
			c-61.18,20.037-125.313,0.188-151.839-10.136C47.421,124.423,74.283,78.452,132.65,59.336z M448.249,303.961
			c0,85.128-69.257,154.385-154.385,154.385h-75.729c-85.129,0-154.385-69.258-154.385-154.386V187.013
			c16.74,4.234,36.523,7.757,57.9,8.659c0.612,18.1,5.58,35.852,14.462,51.56c7.701,13.623,21.019,22.774,36.539,25.111
			c15.342,2.31,30.557-2.437,41.749-13.02c11.287-10.673,26.061-16.55,41.6-16.55s30.313,5.878,41.6,16.55
			c11.192,10.583,26.41,15.323,41.749,13.02c15.519-2.337,28.837-11.488,36.539-25.11c8.882-15.71,13.85-33.463,14.462-51.563
			c21.376-0.903,41.159-4.427,57.9-8.661V303.961z M437.87,158.136c-0.059,0.014-0.117,0.028-0.176,0.043
			c-0.34,0.082-0.685,0.162-1.028,0.243c-0.502,0.119-1.003,0.237-1.513,0.355c-0.118,0.027-0.236,0.054-0.354,0.081
			c-17.081,3.913-37.581,6.932-59.305,6.511l-1.401-0.027c-16.761-0.439-34.206-2.934-51.451-8.582
			c-23.424-7.673-41.534-22.409-48.445-39.42c-4.339-10.68-3.904-21.534,1.26-31.391c10.598-20.231,38.285-32.211,68.513-32.211
			c11.692,0,23.771,1.795,35.38,5.597c32.309,10.583,58.876,30.412,78.964,58.937c7.619,10.819,12.836,20.936,16.159,28.385
			C465.814,150.044,453.145,154.447,437.87,158.136z"/>
	</g>
</g>
<g>
</g>
<g>
</g>
<g>
</g>
<g>
</g>
<g>
</g>
<g>
</g>
<g>
</g>
<g>
</g>
<g>
</g>
<g>
</g>
<g>
</g>
<g>
</g>
<g>
</g>
<g>
</g>
<g>
</g>
</svg>
