<?xml version="1.0" encoding="iso-8859-1"?>
<!-- Generator: Adobe Illustrator 19.0.0, SVG Export Plug-In . SVG Version: 6.00 Build 0)  -->
<svg version="1.1" id="Layer_1" xmlns="http://www.w3.org/2000/svg" xmlns:xlink="http://www.w3.org/1999/xlink" x="0px" y="0px"
	 viewBox="0 0 512 512" style="enable-background:new 0 0 512 512;" xml:space="preserve">
<g>
	<g>
		
			<rect x="143.065" y="305.241" transform="matrix(0.7071 -0.7071 0.7071 0.7071 -203.7711 215.5177)" width="30.406" height="96.984"/>
	</g>
</g>
<g>
	<g>
		<path d="M490.5,101.899l21.5-21.5L471.801,40.2l-28.392-28.393L431.603,0.001l-21.5,21.5l12.777,12.777l-9.816,10.745
			L399.821,31.78l-21.5,21.5l14.213,14.212l-9.816,10.745l-14.677-14.676l-21.5,21.5l15.174,15.174l-63.649,63.649
			c-35.955-18.568-79.652-17.22-114.545,4.312l-0.169,0.104c-1.173,0.726-2.348,1.486-3.605,2.329l-1.02,0.692
			c-1.016,0.698-2.026,1.411-2.997,2.125c-0.418,0.305-0.83,0.618-1.244,0.933l-0.31,0.236c-0.528,0.401-1.054,0.809-1.57,1.215
			c-1.01,0.796-2.009,1.613-3.006,2.452l-0.208,0.174c-0.259,0.219-0.52,0.438-0.774,0.658c-0.662,0.571-1.319,1.146-1.969,1.734
			l-0.195,0.177c-0.886,0.8-1.77,1.602-2.633,2.435c-5.599,5.394-10.662,11.341-15.047,17.675
			c-4.643,6.704-12.078,11.238-20.399,12.44c-31.962,4.617-61.009,19.094-84.001,41.867
			c-58.659,58.096-59.233,153.176-1.283,211.941c0.196,0.199,0.393,0.393,0.591,0.587l0.146,0.143
			c0.18,0.184,0.553,0.565,0.782,0.791c29.156,28.751,67.235,43.098,105.315,43.096c38.68-0.004,77.359-14.813,106.634-44.372
			c22.771-22.992,37.248-52.04,41.866-84.002c1.203-8.322,5.737-15.757,12.44-20.399c6.337-4.389,12.284-9.451,17.674-15.046
			c0.827-0.859,1.624-1.735,2.417-2.614l0.149-0.163c0.607-0.672,1.203-1.35,1.779-2.019c0.232-0.27,0.461-0.54,0.69-0.813
			l0.149-0.177c0.835-0.992,1.654-1.993,2.448-3.001c0.414-0.526,0.823-1.052,1.223-1.58l0.212-0.278
			c0.319-0.419,0.639-0.838,0.933-1.243c0.733-0.995,1.442-2.004,2.151-3.034c0.234-0.343,0.467-0.685,0.683-1.007
			c0.773-1.151,1.513-2.294,2.201-3.4l0.204-0.328c21.556-34.9,22.914-78.619,4.339-114.589l63.649-63.649l15.173,15.173l21.5-21.5
			l-14.677-14.677l10.745-9.815l14.213,14.212l21.5-21.5l-13.242-13.241l10.745-9.816L490.5,101.899z M317.92,312.528l-0.072,0.116
			c-0.526,0.85-1.103,1.742-1.728,2.673l-0.498,0.734c-0.515,0.748-1.038,1.495-1.595,2.252c-0.197,0.269-0.399,0.532-0.601,0.797
			l-0.244,0.32c-0.297,0.391-0.598,0.779-0.906,1.17c-0.588,0.747-1.193,1.485-1.811,2.219l-0.612,0.725
			c-0.43,0.499-0.865,0.994-1.263,1.435l-0.19,0.209c-0.578,0.64-1.154,1.281-1.757,1.907c-3.999,4.15-8.403,7.901-13.09,11.146
			c-13.624,9.435-22.818,24.396-25.223,41.05c-3.679,25.469-15.221,48.621-33.377,66.952
			c-46.325,46.776-122.135,47.233-168.978,1.041c-0.166-0.165-0.473-0.481-0.485-0.493l-0.744-0.738
			c-46.209-46.86-45.751-122.67,1.023-168.995c18.331-18.155,41.483-29.698,66.952-33.377c16.652-2.405,31.614-11.598,41.05-25.224
			c3.243-4.685,6.993-9.088,11.148-13.091c0.631-0.609,1.28-1.192,1.927-1.776l0.041-0.037l0.143-0.129
			c0.479-0.433,0.964-0.856,1.453-1.279l0.711-0.601c0.734-0.617,1.475-1.224,2.231-1.819c0.388-0.307,0.778-0.609,1.155-0.895
			l0.34-0.259c0.259-0.197,0.518-0.395,0.807-0.607c0.734-0.54,1.477-1.062,2.18-1.546l0.794-0.538
			c0.817-0.548,1.584-1.047,2.334-1.516l0.354-0.219c22.935-14.198,51.044-16.57,75.69-7.262l-50.74,50.74
			c-1.266-0.088-2.536-0.148-3.817-0.148c-14.429,0-27.993,5.619-38.195,15.821c-10.202,10.201-15.82,23.765-15.82,38.195
			c0,14.428,5.618,27.992,15.82,38.195c10.531,10.531,24.362,15.795,38.194,15.795s27.664-5.264,38.196-15.795
			c10.201-10.202,15.82-23.766,15.82-38.195c0-1.281-0.06-2.551-0.148-3.817l6.682-6.683l44.058-44.057
			C334.426,261.538,332.067,289.608,317.92,312.528z M244.13,291.48c0,6.306-2.456,12.235-6.914,16.695
			c-9.206,9.203-24.185,9.203-33.389,0c-4.46-4.459-6.915-10.389-6.915-16.695c0-6.307,2.456-12.235,6.915-16.695
			c4.459-4.459,10.388-6.915,16.694-6.915c1.874,0,3.713,0.222,5.49,0.644l0.101,0.024c3.882,0.94,7.496,2.889,10.455,5.637
			l0.126,0.116c0.058,0.053,0.128,0.121,0.196,0.185c0.064,0.06,0.128,0.12,0.191,0.181c0.061,0.059,0.12,0.116,0.164,0.158
			c0.155,0.155,0.305,0.313,0.451,0.474l0.132,0.144c2.748,2.958,4.697,6.573,5.637,10.457l0.025,0.105
			C243.909,287.772,244.13,289.61,244.13,291.48z M331.466,187.586l-69.391,69.391c-0.608-0.73-1.24-1.444-1.889-2.146
			c-0.006-0.007-0.012-0.014-0.018-0.021c-0.114-0.125-0.235-0.243-0.35-0.367c-0.364-0.391-0.728-0.782-1.103-1.156
			c-0.003-0.003-0.005-0.005-0.008-0.008c-0.003-0.003-0.005-0.005-0.008-0.008l-0.122-0.12c0,0-0.841-0.816-1.355-1.288
			c-0.004-0.004-0.009-0.008-0.013-0.012c-0.006-0.005-0.012-0.011-0.017-0.017c-0.005-0.004-0.009-0.008-0.014-0.012
			c-0.704-0.652-1.421-1.286-2.153-1.896l69.39-69.39l58.801-58.801l3.525,3.526l3.525,3.526L331.466,187.586z M412.241,107.76
			l-4-3.999l-3.999-3.999L444.4,55.802l11.799,11.799L412.241,107.76z"/>
	</g>
</g>
<g>
</g>
<g>
</g>
<g>
</g>
<g>
</g>
<g>
</g>
<g>
</g>
<g>
</g>
<g>
</g>
<g>
</g>
<g>
</g>
<g>
</g>
<g>
</g>
<g>
</g>
<g>
</g>
<g>
</g>
</svg>
