<?xml version="1.0" encoding="iso-8859-1"?>
<!-- Generator: Adobe Illustrator 19.0.0, SVG Export Plug-In . SVG Version: 6.00 Build 0)  -->
<svg version="1.1" id="Layer_1" xmlns="http://www.w3.org/2000/svg" xmlns:xlink="http://www.w3.org/1999/xlink" x="0px" y="0px"
	 viewBox="0 0 512 512" style="enable-background:new 0 0 512 512;" xml:space="preserve">
<g>
	<g>
		<path d="M511.378,323.992c-2.019-7.14-8.61-12.126-16.031-12.126h-53.72v-64.307h-25.554
			c-1.844-64.343-15.653-107.779-41.131-129.196c-14.803-12.443-33.261-17.163-53.37-13.655
			c-15.657,2.733-55.349,15.24-63.021,17.679c-1.675,0.283-3.421,0.283-5.096,0c-7.672-2.44-47.364-14.946-63.021-17.679
			c-20.111-3.51-38.567,1.213-53.37,13.655c-25.479,21.418-39.288,64.853-41.131,129.196H70.375v64.307h-53.72
			c-7.42,0-14.013,4.987-16.031,12.126c-2.019,7.14,0.988,14.841,7.309,18.726c18.339,11.27,48.928,27.554,90.502,41.126
			c49.954,16.307,102.966,24.575,157.565,24.575c54.599,0,107.611-8.269,157.565-24.575c41.575-13.573,72.163-29.855,90.502-41.126
			C510.39,338.832,513.396,331.132,511.378,323.992z M156.633,141.646c7.928-6.665,17.271-8.947,28.568-6.974
			c12.141,2.118,47.321,12.963,59.853,16.962l0.722,0.231l0.741,0.157c6.211,1.32,12.753,1.32,18.965,0l0.741-0.157l0.722-0.231
			c12.529-3.999,47.705-14.842,59.853-16.962c11.294-1.971,20.64,0.309,28.568,6.974c23.08,19.401,29.089,69.68,30.264,105.912
			H176.913v-46.893h-30.418v46.893h-20.126C127.545,211.326,133.553,161.048,156.633,141.646z M411.208,277.976v33.889H176.913
			v-33.889H411.208z M100.793,277.976h45.702v33.889h-45.702V277.976z M256,378c-77.652,0-139.688-18.031-181.851-35.717h363.701
			C395.688,359.969,333.653,378,256,378z"/>
	</g>
</g>
<g>
</g>
<g>
</g>
<g>
</g>
<g>
</g>
<g>
</g>
<g>
</g>
<g>
</g>
<g>
</g>
<g>
</g>
<g>
</g>
<g>
</g>
<g>
</g>
<g>
</g>
<g>
</g>
<g>
</g>
</svg>
