<?xml version="1.0" encoding="iso-8859-1"?>
<!-- Generator: Adobe Illustrator 18.0.0, SVG Export Plug-In . SVG Version: 6.00 Build 0)  -->
<!DOCTYPE svg PUBLIC "-//W3C//DTD SVG 1.1//EN" "http://www.w3.org/Graphics/SVG/1.1/DTD/svg11.dtd">
<svg version="1.1" id="Capa_1" xmlns="http://www.w3.org/2000/svg" xmlns:xlink="http://www.w3.org/1999/xlink" x="0px" y="0px"
	 viewBox="0 0 297 297" style="enable-background:new 0 0 297 297;" xml:space="preserve">
<path d="M205.754,224.325L178.032,58.834c-0.268-1.604-0.686-3.165-1.21-4.68c1.44-2.215,2.606-4.578,3.43-7.044l5.818-17.457
	c2.468-7.405,1.521-14.933-2.602-20.652C179.345,3.28,172.504,0,164.698,0h-32.396c-7.806,0-14.646,3.28-18.77,9.001
	c-4.123,5.72-5.07,13.247-2.604,20.651l5.82,17.458c0.822,2.466,1.988,4.829,3.429,7.043c-0.523,1.516-0.94,3.076-1.21,4.681
	L91.246,224.325c-2.106,12.572,3.034,28.919,11.959,38.024l26.018,26.543c5.124,5.228,11.97,8.107,19.277,8.107
	c7.308,0,14.153-2.879,19.278-8.107l26.017-26.543C202.72,253.244,207.86,236.898,205.754,224.325z M129.959,20.84
	c0.11-0.154,0.779-0.592,2.343-0.592h32.396c1.564,0,2.232,0.438,2.343,0.592c0.111,0.153,0.315,0.926-0.18,2.41l-5.818,17.457
	c-1.612,4.835-7.707,9.406-12.543,9.406c-4.836,0-10.931-4.571-12.542-9.405l-5.82-17.458
	C129.644,21.766,129.848,20.993,129.959,20.84z M179.335,248.176l-26.018,26.544c-1.285,1.311-2.995,2.032-4.817,2.032
	c-1.822,0-3.532-0.722-4.817-2.032l-26.018-26.544c-4.34-4.427-7.475-14.393-6.45-20.506l26.689-159.323
	c3.442,1.293,7.035,2.014,10.597,2.014c3.561,0,7.154-0.721,10.597-2.014l26.689,159.323
	C186.81,233.783,183.675,243.749,179.335,248.176z"/>
<g>
</g>
<g>
</g>
<g>
</g>
<g>
</g>
<g>
</g>
<g>
</g>
<g>
</g>
<g>
</g>
<g>
</g>
<g>
</g>
<g>
</g>
<g>
</g>
<g>
</g>
<g>
</g>
<g>
</g>
</svg>
