<?xml version="1.0" encoding="iso-8859-1"?>
<!-- Generator: Adobe Illustrator 18.0.0, SVG Export Plug-In . SVG Version: 6.00 Build 0)  -->
<!DOCTYPE svg PUBLIC "-//W3C//DTD SVG 1.1//EN" "http://www.w3.org/Graphics/SVG/1.1/DTD/svg11.dtd">
<svg version="1.1" id="Capa_1" xmlns="http://www.w3.org/2000/svg" xmlns:xlink="http://www.w3.org/1999/xlink" x="0px" y="0px"
	 viewBox="0 0 297 297" style="enable-background:new 0 0 297 297;" xml:space="preserve">
<g>
	<circle cx="57.91" cy="74.903" r="12.941"/>
	<path d="M291.478,26.859c-3.402-1.822-7.528-1.62-10.736,0.518L231.61,60.132h-20.887V27.451c0-5.775-4.683-10.457-10.458-10.457
		H30.327C13.605,16.994,0,30.6,0,47.321v115.558c0,16.723,13.605,30.328,30.327,30.328h9.118l56.146,82.238
		c1.948,2.853,5.181,4.561,8.637,4.561H148.5c0.007,0,0.014-0.001,0.02,0c5.776,0,10.458-4.683,10.458-10.457
		c0-1.868-0.489-3.622-1.348-5.14l-34.457-71.202h77.092c5.775,0,10.458-4.683,10.458-10.458v-32.681h20.887l49.131,32.754
		c1.75,1.168,3.772,1.757,5.802,1.757c1.691,0,3.388-0.409,4.935-1.237c3.4-1.82,5.522-5.364,5.522-9.221V36.079
		C297,32.223,294.877,28.679,291.478,26.859z M131.821,259.091h-22.07L64.77,193.207h35.167L131.821,259.091z M189.808,172.291
		H30.327c-5.189,0-9.412-4.222-9.412-9.412V47.321c0-5.19,4.223-9.412,9.412-9.412h159.48V172.291z M210.724,81.048h13.595v48.105
		h-13.595V81.048z M276.085,154.58l-30.851-20.565V76.187l30.851-20.566V154.58z"/>
</g>
<g>
</g>
<g>
</g>
<g>
</g>
<g>
</g>
<g>
</g>
<g>
</g>
<g>
</g>
<g>
</g>
<g>
</g>
<g>
</g>
<g>
</g>
<g>
</g>
<g>
</g>
<g>
</g>
<g>
</g>
</svg>
