<?xml version="1.0" encoding="iso-8859-1"?>
<!-- Generator: Adobe Illustrator 19.0.0, SVG Export Plug-In . SVG Version: 6.00 Build 0)  -->
<svg version="1.1" id="Layer_1" xmlns="http://www.w3.org/2000/svg" xmlns:xlink="http://www.w3.org/1999/xlink" x="0px" y="0px"
	 viewBox="0 0 512 512" style="enable-background:new 0 0 512 512;" xml:space="preserve">
<g>
	<g>
		<path d="M511.975,300.073c-0.54-38.157-25.487-68.698-65.405-79.874c-15.533-4.348-30.736-8.001-45.438-11.533
			c-58.972-14.17-109.904-26.408-162.282-75.996l-7.836-7.419l-9.422,4.86c-3.199,1.44-30.34,11.738-68.742,19.929
			c-34.128,7.28-85.363,14.555-135.636,7.881L0,155.634v144.438v30.417v56.26h160.974V371.8h31.243v14.949H512v-56.26v-29.156
			v-1.261H511.975z M438.369,249.49c26.6,7.446,42.662,26.302,43.2,50.583H219.25c4.361-9.005,16.77-19.634,31.904-23.87
			c13.783-3.859,29.273-5.857,45.671-7.973c32.153-4.15,68.309-8.821,97.874-29.826C408.922,241.82,423.613,245.359,438.369,249.49z
			 M30.417,189.88c49.42,3.866,97.559-3.318,130.681-10.503c28.373-6.155,51.311-13.462,63.991-18.05
			c5.963,5.312,11.915,10.185,17.865,14.71L219.2,199.791l21.508,21.508l27.902-27.902c26.899,16.062,53.847,25.878,81.283,33.623
			c-17.87,5.99-37.614,8.545-56.961,11.041c-16.751,2.162-34.073,4.397-49.977,8.849c-25.304,7.083-51.391,28.355-55.289,53.162
			h-22.746c-7.374-49.632-50.267-87.833-101.917-87.833H30.417V189.88z M30.417,242.656h32.585c34.829,0,63.999,24.649,71.01,57.416
			H30.417V242.656z M481.583,356.332H222.634v-14.949h-92.077v14.949H30.417V330.49h451.166V356.332z"/>
	</g>
</g>
<g>
</g>
<g>
</g>
<g>
</g>
<g>
</g>
<g>
</g>
<g>
</g>
<g>
</g>
<g>
</g>
<g>
</g>
<g>
</g>
<g>
</g>
<g>
</g>
<g>
</g>
<g>
</g>
<g>
</g>
</svg>
