<?xml version="1.0" encoding="iso-8859-1"?>
<!-- Generator: Adobe Illustrator 19.0.0, SVG Export Plug-In . SVG Version: 6.00 Build 0)  -->
<svg version="1.1" id="Layer_1" xmlns="http://www.w3.org/2000/svg" xmlns:xlink="http://www.w3.org/1999/xlink" x="0px" y="0px"
	 viewBox="0 0 512 512" style="enable-background:new 0 0 512 512;" xml:space="preserve">
<g>
	<g>
		<path d="M104.344,0v512h93.01l20.278-321.816h76.737L314.646,512h93.01V0H104.344z M271.209,30.417h106.03v20.278h-106.03V30.417z
			 M377.239,81.113v33.319c-15.829-4.972-28.347-17.49-33.319-33.319H377.239z M134.761,30.417h106.03v20.278h-106.03V30.417z
			 M134.761,81.113h33.319c-4.972,15.829-17.49,28.347-33.319,33.319V81.113z M168.793,481.583h-34.032v-10.139h34.671
			L168.793,481.583z M240.792,159.764h-51.721v0.001l-17.722,281.26h-36.587V145.725c32.636-6.206,58.407-31.978,64.613-64.613
			h41.417V159.764z M322.93,159.765h-51.721V81.113h41.417c6.206,32.636,31.978,58.407,64.613,64.613v295.301h-36.587
			L322.93,159.765z M377.24,481.583h-34.032l-0.639-10.139h34.671V481.583z"/>
	</g>
</g>
<g>
</g>
<g>
</g>
<g>
</g>
<g>
</g>
<g>
</g>
<g>
</g>
<g>
</g>
<g>
</g>
<g>
</g>
<g>
</g>
<g>
</g>
<g>
</g>
<g>
</g>
<g>
</g>
<g>
</g>
</svg>
