<?xml version="1.0" encoding="iso-8859-1"?>
<!-- Generator: Adobe Illustrator 19.0.0, SVG Export Plug-In . SVG Version: 6.00 Build 0)  -->
<svg version="1.1" id="Layer_1" xmlns="http://www.w3.org/2000/svg" xmlns:xlink="http://www.w3.org/1999/xlink" x="0px" y="0px"
	 viewBox="0 0 512.001 512.001" style="enable-background:new 0 0 512.001 512.001;" xml:space="preserve">
<g>
	<g>
		<path d="M255.999,124.669c-72.416,0-131.331,58.915-131.331,131.331s58.915,131.331,131.331,131.331
			s131.331-58.915,131.331-131.331S328.416,124.669,255.999,124.669z M255.999,356.916c-55.644,0-100.914-45.27-100.914-100.914
			c0-55.644,45.27-100.914,100.914-100.914s100.914,45.27,100.914,100.914C356.914,311.646,311.644,356.916,255.999,356.916z"/>
	</g>
</g>
<g>
	<g>
		<path d="M271.208,233.951v-58.976h-30.417v58.976c-2.674,1.847-4.993,4.167-6.841,6.841h-58.976v30.417h58.976
			c4.833,6.994,12.904,11.58,22.049,11.58c14.795,0,26.788-11.994,26.788-26.788C282.788,246.856,278.203,238.784,271.208,233.951z"
			/>
	</g>
</g>
<g>
	<g>
		<path d="M512,150.554h-55.042v-15.491L340.77,104.055c-25.1-14.059-54.013-22.09-84.771-22.09s-59.67,8.031-84.771,22.09
			L55.042,135.063v15.491H0v210.893h55.042v15.491l116.188,31.007c25.1,14.059,54.013,22.09,84.771,22.09
			c30.758,0,59.671-8.031,84.771-22.09l116.188-31.007v-15.491h55.042L512,150.554L512,150.554z M55.042,331.03H30.417V180.971
			h24.625V331.03z M85.459,158.426l32.879-8.774c-16.007,20.673-27.474,45.027-32.879,71.563V158.426z M85.459,353.575v-62.788
			c5.404,26.536,16.871,50.89,32.879,71.563L85.459,353.575z M255.999,399.618c-79.191,0-143.618-64.426-143.618-143.618
			c0-79.191,64.427-143.618,143.618-143.618s143.618,64.427,143.618,143.618S335.191,399.618,255.999,399.618z M426.54,353.575
			l-32.879,8.774c16.008-20.672,27.475-45.027,32.879-71.563V353.575z M426.54,221.214c-5.404-26.536-16.871-50.89-32.879-71.563
			l32.879,8.774V221.214z M481.583,331.03h-24.625V180.971h24.625V331.03z"/>
	</g>
</g>
<g>
</g>
<g>
</g>
<g>
</g>
<g>
</g>
<g>
</g>
<g>
</g>
<g>
</g>
<g>
</g>
<g>
</g>
<g>
</g>
<g>
</g>
<g>
</g>
<g>
</g>
<g>
</g>
<g>
</g>
</svg>
