<?xml version="1.0" encoding="iso-8859-1"?>
<!-- Generator: Adobe Illustrator 19.0.0, SVG Export Plug-In . SVG Version: 6.00 Build 0)  -->
<svg version="1.1" id="Layer_1" xmlns="http://www.w3.org/2000/svg" xmlns:xlink="http://www.w3.org/1999/xlink" x="0px" y="0px"
	 viewBox="0 0 512 512" style="enable-background:new 0 0 512 512;" xml:space="preserve">
<g>
	<g>
		<path d="M512,215.822v-30.417h-15.703V124.57h-88.911l-27.969-73.483H233.973l-27.969,73.483h-13.544V82.442h-30.417v42.129
			h-16.675V82.442H41.954v42.129H15.703v60.834H0v30.417h15.703V379.8H0v30.417h15.703v50.695h480.592v-50.695h15.703V379.8h-15.703
			V215.822H512z M254.942,81.506h103.506l16.392,43.066H238.55L254.942,81.506z M72.372,112.86h42.58v11.712h-42.58V112.86z
			 M46.121,154.987h99.248h49.059h224.535h46.916v30.417H46.121V154.987z M392.931,215.823h72.948V379.8H432.26
			c7.828-17.286,12.189-36.464,12.189-56.641C444.449,279.817,424.322,241.094,392.931,215.823z M46.121,215.822h174.338
			c-31.392,25.271-51.519,63.994-51.519,107.336c0,19.794,4.159,38.983,12.146,56.641H46.121V215.822z M46.121,430.495v-20.278
			h153.822c6.136,7.508,13.006,14.294,20.47,20.278H46.121z M306.696,430.496c-34.293,0-66.804-16.601-86.965-44.407
			c-13.328-18.381-20.371-40.143-20.371-62.929c0-59.186,48.15-107.336,107.336-107.336c59.186,0,107.336,48.15,107.336,107.336
			C414.032,382.345,365.882,430.496,306.696,430.496z M465.879,430.495h-0.001h-72.948c7.495-6.034,14.349-12.831,20.438-20.278
			h52.51V430.495z"/>
	</g>
</g>
<g>
	<g>
		<path d="M306.695,230.284c-51.21,0-92.874,41.664-92.874,92.874c0.001,51.211,41.664,92.875,92.874,92.875
			s92.874-41.664,92.874-92.875C399.569,271.948,357.905,230.284,306.695,230.284z M306.695,385.617
			c-34.438,0-62.457-28.018-62.457-62.458c0.001-34.438,28.018-62.457,62.457-62.457c34.438,0,62.457,28.018,62.457,62.457
			C369.152,357.599,341.133,385.617,306.695,385.617z"/>
	</g>
</g>
<g>
</g>
<g>
</g>
<g>
</g>
<g>
</g>
<g>
</g>
<g>
</g>
<g>
</g>
<g>
</g>
<g>
</g>
<g>
</g>
<g>
</g>
<g>
</g>
<g>
</g>
<g>
</g>
<g>
</g>
</svg>
