<?xml version="1.0" encoding="iso-8859-1"?>
<!-- Generator: Adobe Illustrator 19.0.0, SVG Export Plug-In . SVG Version: 6.00 Build 0)  -->
<svg version="1.1" id="Layer_1" xmlns="http://www.w3.org/2000/svg" xmlns:xlink="http://www.w3.org/1999/xlink" x="0px" y="0px"
	 viewBox="0 0 512.002 512.002" style="enable-background:new 0 0 512.002 512.002;" xml:space="preserve">
<g>
	<g>
		<path d="M512,347.592h-23.42V115.737c0-38.654-31.447-70.102-70.102-70.102h-25.601v30.417h25.601
			c21.882,0,39.684,17.802,39.684,39.684v173.818c-18.749-18.725-44.62-30.32-73.148-30.32H126.985
			c-28.528,0-54.399,11.595-73.148,30.32V115.737c0-21.882,17.802-39.684,39.684-39.684h25.601V45.635H93.521
			c-38.654,0-70.102,31.447-70.102,70.102v231.855H0v30.417h24.54c7.379,49.922,50.506,88.357,102.446,88.357
			c57.105,0,103.566-46.459,103.566-103.566c0-5.724-0.474-11.338-1.372-16.812h53.643c-0.897,5.474-1.372,11.088-1.372,16.812
			c0,57.106,46.459,103.566,103.566,103.566c51.939,0,95.067-38.435,102.446-88.357h24.54v-30.417H512z M53.836,362.802
			c0.001-40.335,32.815-73.148,73.148-73.148c2.806,0,5.572,0.174,8.298,0.485L54.321,371.1
			C54.012,368.374,53.836,365.608,53.836,362.802z M65.729,402.707l101.163-101.163c8.508,5.561,15.789,12.842,21.35,21.35
			L87.078,424.057C78.571,418.496,71.291,411.215,65.729,402.707z M126.985,435.949c-2.808,0-5.572-0.174-8.299-0.485l80.963-80.962
			c0.309,2.725,0.485,5.491,0.485,8.298C200.133,403.135,167.318,435.949,126.985,435.949z M292.861,315.572h-73.722
			c-4.943-9.606-11.344-18.344-18.908-25.919h111.539C304.205,297.229,297.804,305.966,292.861,315.572z M311.866,362.801
			c0-40.334,32.814-73.148,73.148-73.148c2.808,0.001,5.572,0.175,8.298,0.485l-80.962,80.962
			C312.041,368.373,311.866,365.608,311.866,362.801z M323.758,402.707l101.163-101.163c8.508,5.561,15.789,12.842,21.35,21.35
			L345.108,424.057C336.6,418.496,329.32,411.216,323.758,402.707z M385.014,435.949c-2.807,0-5.572-0.174-8.298-0.484
			l80.962-80.961c0.309,2.725,0.485,5.491,0.485,8.298C458.163,403.135,425.348,435.949,385.014,435.949z"/>
	</g>
</g>
<g>
</g>
<g>
</g>
<g>
</g>
<g>
</g>
<g>
</g>
<g>
</g>
<g>
</g>
<g>
</g>
<g>
</g>
<g>
</g>
<g>
</g>
<g>
</g>
<g>
</g>
<g>
</g>
<g>
</g>
</svg>
