<?xml version="1.0" encoding="iso-8859-1"?>
<!-- Generator: Adobe Illustrator 19.0.0, SVG Export Plug-In . SVG Version: 6.00 Build 0)  -->
<svg version="1.1" id="Layer_1" xmlns="http://www.w3.org/2000/svg" xmlns:xlink="http://www.w3.org/1999/xlink" x="0px" y="0px"
	 viewBox="0 0 511.999 511.999" style="enable-background:new 0 0 511.999 511.999;" xml:space="preserve">
<g>
	<g>
		<path d="M452.238,357.499v-5.925c0-72.098-27.534-140.395-77.531-192.312c-9.069-9.417-18.709-18.107-28.834-26.056V82.539h39.881
			V51.882h-98.156v30.657h27.618v29.766c-34.695-20.393-73.551-33.007-114.252-36.787V5.896h-60.973
			c-28.082,0-50.928,22.846-50.928,50.928v17.063h30.657V56.824c0-11.178,9.093-20.271,20.271-20.271h30.316v98.915
			C75.091,143.287,0,223.268,0,320.467c0,102.36,83.275,185.636,185.636,185.636s185.637-83.275,185.637-185.636
			c0-97.199-75.092-177.18-170.308-185v-29.141c57.669,6.028,111.034,32.016,151.66,74.202
			c44.468,46.176,68.957,106.921,68.957,171.047v5.925c-34.078,7.097-59.762,37.359-59.762,73.512
			c0,41.405,33.686,75.09,75.09,75.09s75.09-33.686,75.09-75.09C512,394.859,486.317,364.597,452.238,357.499z M211.731,320.467
			c0,14.388-11.706,26.094-26.095,26.094c-8.664,0-16.35-4.247-21.098-10.766h21.098v-30.657h-21.099
			c4.749-6.519,12.435-10.767,21.099-10.767C200.025,294.372,211.731,306.078,211.731,320.467z M340.616,320.467
			c0,85.456-69.524,154.979-154.98,154.979S30.657,405.923,30.657,320.467c0-80.283,61.363-146.5,139.65-154.223v99.591
			c-18.988,5.335-33.967,20.315-39.302,39.303H88.722v30.657h42.283c6.707,23.867,28.65,41.423,54.631,41.423
			c25.982,0,47.925-17.556,54.632-41.423h40.358v-30.657h-40.358c-5.335-18.988-20.315-33.968-39.303-39.303v-99.591
			C279.252,173.967,340.616,240.183,340.616,320.467z M436.91,475.446c-24.501,0-44.433-19.933-44.433-44.433
			c0-19.116,12.135-35.45,29.105-41.707v41.707h30.657v-41.707c16.971,6.257,29.105,22.591,29.105,41.707
			C481.343,455.513,461.41,475.446,436.91,475.446z"/>
	</g>
</g>
<g>
</g>
<g>
</g>
<g>
</g>
<g>
</g>
<g>
</g>
<g>
</g>
<g>
</g>
<g>
</g>
<g>
</g>
<g>
</g>
<g>
</g>
<g>
</g>
<g>
</g>
<g>
</g>
<g>
</g>
</svg>
