<?xml version="1.0" encoding="iso-8859-1"?>
<!-- Generator: Adobe Illustrator 18.0.0, SVG Export Plug-In . SVG Version: 6.00 Build 0)  -->
<!DOCTYPE svg PUBLIC "-//W3C//DTD SVG 1.1//EN" "http://www.w3.org/Graphics/SVG/1.1/DTD/svg11.dtd">
<svg version="1.1" id="Capa_1" xmlns="http://www.w3.org/2000/svg" xmlns:xlink="http://www.w3.org/1999/xlink" x="0px" y="0px"
	 viewBox="0 0 297 297" style="enable-background:new 0 0 297 297;" xml:space="preserve">
<path d="M287.883,96.006c-12.025-1.104-23.701-1.662-34.702-1.662c-57.425,0-84.374,15.219-91.151,19.773h-27.059
	c-6.777-4.555-33.727-19.773-91.151-19.773c-11.002,0-22.677,0.559-34.703,1.662C3.952,96.478,0,100.795,0,105.963
	c0,0.957,0.096,23.693,8.474,46.752c11.872,32.672,34.196,49.941,64.561,49.941c20.363,0,36.651-6.443,48.414-19.148
	c10.104-10.916,12.529-25.305,17.191-36.221c0.629-1.471,4.275-5.752,9.861-5.773c5.586,0.021,9.232,4.303,9.861,5.773
	c4.66,10.916,7.087,25.305,17.191,36.221c11.763,12.705,28.051,19.148,48.413,19.148c30.365,0,52.689-17.27,64.562-49.941
	c8.378-23.059,8.474-45.795,8.474-46.752C297,100.795,293.048,96.478,287.883,96.006z M17.586,114.39
	c-1.032,1.021-2.443,1.61-3.896,1.61c-1.452,0-2.865-0.59-3.896-1.61c-1.022-1.02-1.612-2.439-1.612-3.89
	c0-1.45,0.591-2.87,1.612-3.891c1.021-1.02,2.444-1.609,3.896-1.609c1.453,0,2.875,0.59,3.896,1.609
	c1.022,1.03,1.612,2.44,1.612,3.891C19.198,111.95,18.607,113.359,17.586,114.39z M106.628,170.783
	c-7.912,8.505-18.901,12.639-33.594,12.639c-21.628,0-35.825-12.151-45.532-36.331c-1.459-3.633-2.7-7.309-3.378-11.018
	c-0.015-0.078-1.39-8.172,2.761-14.041c2.524-3.567,6.876-6.649,13.139-6.923c44.761-1.956,72.012,9.841,80.434,14.386
	C120.305,138.471,118.513,158.008,106.628,170.783z M272.876,136.072c-0.678,3.709-1.919,7.386-3.378,11.018
	c-9.707,24.18-23.904,36.331-45.533,36.331c-14.691,0-25.681-4.134-33.593-12.639c-11.885-12.775-13.677-32.313-13.829-41.289
	c8.422-4.545,35.673-16.342,80.434-14.386c6.263,0.273,10.614,3.355,13.139,6.923C274.266,127.9,272.891,135.994,272.876,136.072z
	 M287.207,114.39c-1.031,1.021-2.444,1.61-3.897,1.61c-1.453,0-2.864-0.59-3.896-1.61c-1.021-1.03-1.613-2.439-1.613-3.89
	c0-1.45,0.592-2.86,1.613-3.891c1.021-1.02,2.443-1.609,3.896-1.609c1.452,0,2.875,0.59,3.897,1.609
	c1.021,1.021,1.612,2.44,1.612,3.891C288.819,111.95,288.228,113.37,287.207,114.39z"/>
<g>
</g>
<g>
</g>
<g>
</g>
<g>
</g>
<g>
</g>
<g>
</g>
<g>
</g>
<g>
</g>
<g>
</g>
<g>
</g>
<g>
</g>
<g>
</g>
<g>
</g>
<g>
</g>
<g>
</g>
</svg>
