<?xml version="1.0" encoding="iso-8859-1"?>
<!-- Generator: Adobe Illustrator 19.0.0, SVG Export Plug-In . SVG Version: 6.00 Build 0)  -->
<svg version="1.1" id="Layer_1" xmlns="http://www.w3.org/2000/svg" xmlns:xlink="http://www.w3.org/1999/xlink" x="0px" y="0px"
	 viewBox="0 0 512 512" style="enable-background:new 0 0 512 512;" xml:space="preserve">
<g>
	<g>
		<path d="M505.762,289.73c-4.676-6.997-11.44-12.075-19.333-14.616c-0.47-27.034-5.586-53.479-15.278-78.783
			c-9.801-25.586-23.878-48.856-41.903-69.382l18.336-18.336l-10.784-10.784C388.314,49.34,323.845,22.637,255.273,22.637
			S122.231,49.34,73.744,97.829l-10.786,10.783l18.336,18.336c-18.061,20.564-32.156,43.885-41.959,69.528
			c-9.717,25.419-14.819,51.986-15.232,79.14c-16.72,6.191-26.977,23.818-23.39,41.848l26.22,131.816
			c1.926,9.68,7.505,18.028,15.71,23.512c6.148,4.109,13.219,6.239,20.449,6.239c2.42,0,4.858-0.239,7.285-0.722l17.754-3.531
			l2.901,14.585l83.908-16.69l-46.439-233.461l-72.295,14.38c2.015-15.768,5.886-31.229,11.618-46.223
			c8.261-21.612,20.036-41.332,35.079-58.807l17.568,17.569l10.784-10.784c33.067-33.067,77.109-51.279,124.013-51.279
			c46.903,0,90.944,18.211,124.013,51.279l10.784,10.785l17.569-17.569c15.013,17.44,26.771,37.118,35.031,58.68
			c5.722,14.939,9.597,30.342,11.629,46.053l-70.806-14.084l-46.436,233.459l83.907,16.69l2.902-14.586l17.754,3.531
			c2.427,0.483,4.865,0.722,7.286,0.722c7.23,0,14.301-2.131,20.449-6.239c8.205-5.483,13.785-13.832,15.71-23.512l26.219-131.815
			C513.204,307.784,511.246,297.936,505.762,289.73z M104.539,275.078l34.536,173.63L115,453.496l-17.269-86.814l-17.269-86.814
			L104.539,275.078z M67.814,372.632l14.368,72.228l-17.755,3.531c-2.277,0.456-4.007-0.408-4.836-0.962
			c-0.829-0.553-2.288-1.823-2.74-4.101l-26.22-131.816c-0.693-3.484,1.578-6.885,5.063-7.577l17.754-3.532L67.814,372.632z
			 M389.676,123.383c-37.311-32.233-84.481-49.82-134.404-49.82c-49.923,0-97.093,17.587-134.404,49.821l-14.417-14.418
			c41.225-36.111,93.508-55.828,148.82-55.828c55.313,0,107.596,19.718,148.82,55.828L389.676,123.383z M414.262,366.681
			l-17.268,86.814l-24.076-4.789l34.536-173.629l24.075,4.789L414.262,366.681z M481.361,311.513L455.142,443.33
			c-0.453,2.277-1.912,3.547-2.739,4.1c-0.828,0.554-2.563,1.419-4.838,0.962l-17.755-3.531l14.367-72.229l14.367-72.229
			l17.755,3.532c2.278,0.453,3.547,1.912,4.102,2.74C480.953,307.504,481.816,309.234,481.361,311.513z"/>
	</g>
</g>
<g>
</g>
<g>
</g>
<g>
</g>
<g>
</g>
<g>
</g>
<g>
</g>
<g>
</g>
<g>
</g>
<g>
</g>
<g>
</g>
<g>
</g>
<g>
</g>
<g>
</g>
<g>
</g>
<g>
</g>
</svg>
