<?xml version="1.0" encoding="iso-8859-1"?>
<!-- Generator: Adobe Illustrator 18.0.0, SVG Export Plug-In . SVG Version: 6.00 Build 0)  -->
<!DOCTYPE svg PUBLIC "-//W3C//DTD SVG 1.1//EN" "http://www.w3.org/Graphics/SVG/1.1/DTD/svg11.dtd">
<svg version="1.1" id="Capa_1" xmlns="http://www.w3.org/2000/svg" xmlns:xlink="http://www.w3.org/1999/xlink" x="0px" y="0px"
	 viewBox="0 0 297 297" style="enable-background:new 0 0 297 297;" xml:space="preserve">
<path d="M276.965,92.179c-14.369-14.611-33.227-23.335-50.443-23.335c-19.931,0-35.753,11.316-43.408,31.048
	c-1.823,4.701-0.103,10.037,4.124,12.786c4.226,2.748,9.802,2.159,13.359-1.413c4.761-4.781,11.088-7.414,17.816-7.414
	c6.726,0,13.051,2.633,17.811,7.415c9.857,9.894,9.857,25.997-0.002,35.896c-4.789,4.812-11.147,7.46-17.903,7.46
	c-6.698,0-12.989-2.615-17.713-7.366c-6.638-6.676-15.473-10.353-24.879-10.353c-9.459,0-18.357,3.708-25.051,10.439
	c-0.771,0.775-1.493,1.58-2.175,2.404c-0.683-0.824-1.403-1.629-2.175-2.404c-6.695-6.732-15.593-10.439-25.052-10.439
	c-9.406,0-18.241,3.677-24.878,10.352c-4.725,4.751-11.016,7.367-17.714,7.367c-6.756,0-13.114-2.648-17.904-7.46
	c-9.857-9.899-9.857-26.003,0.001-35.899c4.758-4.779,11.083-7.412,17.809-7.412c6.729,0,13.056,2.633,17.816,7.414
	c3.558,3.573,9.136,4.163,13.358,1.413c4.227-2.749,5.947-8.085,4.125-12.786C106.232,80.16,90.41,68.844,70.479,68.844
	c-17.217,0-36.074,8.724-50.448,23.339c-26.383,26.855-26.738,69.253-0.863,103.104c15.971,20.889,38.908,32.869,62.93,32.869
	c23.411,0,46.286-11.184,64.417-31.494c0.702-0.788,1.359-1.598,1.986-2.418c0.627,0.821,1.285,1.632,1.988,2.421
	c18.127,20.306,41.002,31.49,64.414,31.491c0,0,0.002,0,0.004,0c24.02,0,46.955-11.98,62.926-32.87
	C303.708,161.435,303.352,119.038,276.965,92.179z M130.614,182.474c-14.029,15.716-31.26,24.372-48.517,24.372
	c-17.583,0-33.92-8.702-46.001-24.502c-15.758-20.615-22.75-52.95-0.867-75.225c1.721-1.749,3.53-3.388,5.406-4.904
	c-12.877,18.202-11.197,43.675,5.041,59.981c8.818,8.856,20.54,13.734,33.006,13.734c12.412,0,24.069-4.848,32.825-13.651
	c2.607-2.623,6.075-4.067,9.767-4.067c3.745,0,7.276,1.477,9.942,4.157C137.216,168.4,135.453,177.051,130.614,182.474z
	 M260.904,182.344c-12.082,15.802-28.418,24.504-46,24.503c-17.258-0.001-34.489-8.657-48.515-24.369
	c-4.842-5.427-6.604-14.077-0.604-20.107c2.665-2.681,6.196-4.157,9.941-4.157c3.691,0,7.159,1.444,9.767,4.068
	c8.755,8.803,20.413,13.65,32.824,13.65c12.466,0,24.188-4.878,33.005-13.734c16.239-16.307,17.918-41.781,5.042-59.981
	c1.875,1.516,3.684,3.152,5.402,4.9C283.654,129.394,276.662,161.729,260.904,182.344z"/>
<g>
</g>
<g>
</g>
<g>
</g>
<g>
</g>
<g>
</g>
<g>
</g>
<g>
</g>
<g>
</g>
<g>
</g>
<g>
</g>
<g>
</g>
<g>
</g>
<g>
</g>
<g>
</g>
<g>
</g>
</svg>
