<?xml version="1.0" encoding="iso-8859-1"?>
<!-- Generator: Adobe Illustrator 18.0.0, SVG Export Plug-In . SVG Version: 6.00 Build 0)  -->
<!DOCTYPE svg PUBLIC "-//W3C//DTD SVG 1.1//EN" "http://www.w3.org/Graphics/SVG/1.1/DTD/svg11.dtd">
<svg version="1.1" id="Capa_1" xmlns="http://www.w3.org/2000/svg" xmlns:xlink="http://www.w3.org/1999/xlink" x="0px" y="0px"
	 viewBox="0 0 297 297" style="enable-background:new 0 0 297 297;" xml:space="preserve">
<path d="M216.323,4.945C214.54,1.912,211.287,0,207.718,0H89.282c-3.573,0-6.828,1.916-8.61,4.954L66.707,30.448H34.711
	c-5.525,0-10.005,4.479-10.005,10.004v246.544c0,5.524,4.479,10.004,10.005,10.004h227.578c5.525,0,10.005-4.479,10.005-10.004
	V40.452c0-5.524-4.479-10.004-10.005-10.004h-31.995L216.323,4.945z M213.071,40.658l-29.382,58.766l-21.53-21.531l43.689-50.448
	L213.071,40.658z M91.151,27.444l43.689,50.448l-21.529,21.531L83.93,40.658L91.151,27.444z M185.819,20.008L148.5,63.101
	l-37.319-43.093H185.819z M44.715,50.457h21.743l35.165,70.329c1.438,2.878,4.172,4.887,7.346,5.401
	c0.534,0.088,1.07,0.129,1.602,0.129c2.632,0,5.183-1.039,7.074-2.93l20.851-20.852v174.457H44.715V50.457z M252.285,276.992
	h-93.781V102.535l20.852,20.852c1.892,1.891,4.442,2.93,7.074,2.93c0.532,0,1.068-0.041,1.602-0.129
	c3.174-0.515,5.907-2.523,7.346-5.401l35.165-70.329h21.742V276.992z"/>
<g>
</g>
<g>
</g>
<g>
</g>
<g>
</g>
<g>
</g>
<g>
</g>
<g>
</g>
<g>
</g>
<g>
</g>
<g>
</g>
<g>
</g>
<g>
</g>
<g>
</g>
<g>
</g>
<g>
</g>
</svg>
